<svg xmlns="http://www.w3.org/2000/svg" viewBox="0 0 1000 1000"><rect width="100%" height="100%" fill="#f5eedb"/><polyline points="361.35,557.43 339.75,549.23 318.15,541.02 296.55,532.82 274.94,524.62 253.34,516.41 231.74,508.21 210.14,500.00" fill="none" stroke-linecap="round" stroke-linejoin="round" stroke="#b3bac6" stroke-width="2.88"/><polyline points="232.21,610.92 233.87,631.68 235.52,652.43 237.18,673.18 238.84,693.94 240.49,714.69 242.15,735.44 243.80,756.20" fill="none" stroke-linecap="round" stroke-linejoin="round" stroke="#b3bac6" stroke-width="2.88"/><polyline points="610.92,767.79 631.68,766.13 652.43,764.48 673.18,762.82 693.94,761.16 714.69,759.51 735.44,757.85 756.20,756.20" fill="none" stroke-linecap="round" stroke-linejoin="round" stroke="#b3bac6" stroke-width="2.88"/><polyline points="557.43,638.65 549.23,660.25 541.02,681.85 532.82,703.45 524.62,725.06 516.41,746.66 508.21,768.26 500.00,789.86" fill="none" stroke-linecap="round" stroke-linejoin="round" stroke="#b3bac6" stroke-width="2.88"/><polyline points="232.21,389.08 218.71,404.92 205.20,420.77 191.70,436.62 178.19,452.46 164.69,468.31 151.19,484.15 137.68,500.00" fill="none" stroke-linecap="round" stroke-linejoin="round" stroke="#b3bac6" stroke-width="2.88"/><polyline points="767.79,389.08 781.30,404.92 794.80,420.77 808.30,436.61 821.81,452.46 835.31,468.31 848.82,484.15 862.32,500.00" fill="none" stroke-linecap="round" stroke-linejoin="round" stroke="#b3bac6" stroke-width="2.88"/><polyline points="442.57,361.35 450.77,339.75 458.98,318.15 467.18,296.55 475.38,274.94 483.59,253.34 491.79,231.74 500.00,210.14" fill="none" stroke-linecap="round" stroke-linejoin="round" stroke="#b3bac6" stroke-width="2.88"/><polyline points="232.21,389.08 233.86,368.32 235.52,347.57 237.18,326.82 238.83,306.06 240.49,285.31 242.14,264.56 243.80,243.80" fill="none" stroke-linecap="round" stroke-linejoin="round" stroke="#b3bac6" stroke-width="2.88"/><polyline points="389.08,232.21 404.92,218.70 420.77,205.20 436.61,191.70 452.46,178.19 468.31,164.69 484.15,151.18 500.00,137.68" fill="none" stroke-linecap="round" stroke-linejoin="round" stroke="#b3bac6" stroke-width="2.88"/><polyline points="767.79,610.92 766.14,631.68 764.48,652.43 762.82,673.18 761.17,693.94 759.51,714.69 757.86,735.44 756.20,756.20" fill="none" stroke-linecap="round" stroke-linejoin="round" stroke="#b3bac6" stroke-width="2.88"/><polyline points="361.35,442.57 351.87,421.49 342.40,400.42 332.93,379.34 323.46,358.27 313.98,337.19 304.51,316.12 295.04,295.04" fill="none" stroke-linecap="round" stroke-linejoin="round" stroke="#b3bac6" stroke-width="2.88"/><polyline points="610.92,232.21 595.08,218.71 579.23,205.20 563.38,191.70 547.54,178.19 531.69,164.69 515.85,151.19 500.00,137.68" fill="none" stroke-linecap="round" stroke-linejoin="round" stroke="#b3bac6" stroke-width="2.88"/><polyline points="389.08,767.79 404.92,781.29 420.77,794.80 436.62,808.30 452.46,821.81 468.31,835.31 484.15,848.81 500.00,862.32" fill="none" stroke-linecap="round" stroke-linejoin="round" stroke="#b3bac6" stroke-width="2.88"/><polyline points="610.92,767.79 595.08,781.30 579.23,794.80 563.39,808.30 547.54,821.81 531.69,835.31 515.85,848.82 500.00,862.32" fill="none" stroke-linecap="round" stroke-linejoin="round" stroke="#b3bac6" stroke-width="2.88"/><polyline points="767.79,610.92 781.29,595.08 794.80,579.23 808.30,563.38 821.81,547.54 835.31,531.69 848.81,515.85 862.32,500.00" fill="none" stroke-linecap="round" stroke-linejoin="round" stroke="#b3bac6" stroke-width="2.88"/><polyline points="638.65,442.57 660.25,450.77 681.85,458.98 703.45,467.18 725.06,475.38 746.66,483.59 768.26,491.79 789.86,500.00" fill="none" stroke-linecap="round" stroke-linejoin="round" stroke="#b3bac6" stroke-width="2.88"/><polyline points="557.43,361.35 578.51,351.87 599.58,342.40 620.66,332.93 641.73,323.46 662.81,313.98 683.88,304.51 704.96,295.04" fill="none" stroke-linecap="round" stroke-linejoin="round" stroke="#b3bac6" stroke-width="2.88"/><polyline points="442.57,638.65 421.49,648.13 400.42,657.60 379.34,667.07 358.27,676.54 337.19,686.02 316.12,695.49 295.04,704.96" fill="none" stroke-linecap="round" stroke-linejoin="round" stroke="#b3bac6" stroke-width="2.88"/><polyline points="389.08,767.79 368.32,766.14 347.57,764.48 326.82,762.82 306.06,761.17 285.31,759.51 264.56,757.86 243.80,756.20" fill="none" stroke-linecap="round" stroke-linejoin="round" stroke="#b3bac6" stroke-width="2.88"/><polyline points="389.08,232.21 368.32,233.87 347.57,235.52 326.82,237.18 306.06,238.84 285.31,240.49 264.56,242.15 243.80,243.80" fill="none" stroke-linecap="round" stroke-linejoin="round" stroke="#b3bac6" stroke-width="2.88"/><polyline points="232.21,610.92 218.70,595.08 205.20,579.23 191.70,563.39 178.19,547.54 164.69,531.69 151.18,515.85 137.68,500.00" fill="none" stroke-linecap="round" stroke-linejoin="round" stroke="#b3bac6" stroke-width="2.88"/><polyline points="638.65,557.43 648.13,578.51 657.60,599.58 667.07,620.66 676.54,641.73 686.02,662.81 695.49,683.88 704.96,704.96" fill="none" stroke-linecap="round" stroke-linejoin="round" stroke="#b3bac6" stroke-width="2.88"/><polyline points="767.79,389.08 766.13,368.32 764.48,347.57 762.82,326.82 761.16,306.06 759.51,285.31 757.85,264.56 756.20,243.80" fill="none" stroke-linecap="round" stroke-linejoin="round" stroke="#b3bac6" stroke-width="2.88"/><polyline points="610.92,232.21 631.68,233.86 652.43,235.52 673.18,237.18 693.94,238.83 714.69,240.49 735.44,242.14 756.20,243.80" fill="none" stroke-linecap="round" stroke-linejoin="round" stroke="#b3bac6" stroke-width="2.88"/><polyline points="500.00,349.92 393.88,393.88" fill="none" stroke-linecap="butt" stroke-linejoin="round" stroke="#f5eedb" stroke-width="11.34"/><polyline points="500.00,349.92 393.88,393.88" fill="none" stroke-linecap="round" stroke-linejoin="round" stroke="#1d3557" stroke-width="6.48"/><polyline points="650.08,500.00 606.12,393.88" fill="none" stroke-linecap="butt" stroke-linejoin="round" stroke="#f5eedb" stroke-width="11.34"/><polyline points="650.08,500.00 606.12,393.88" fill="none" stroke-linecap="round" stroke-linejoin="round" stroke="#1d3557" stroke-width="6.48"/><polyline points="557.43,638.65 638.65,557.43" fill="none" stroke-linecap="butt" stroke-linejoin="round" stroke="#f5eedb" stroke-width="11.34"/><polyline points="557.43,638.65 638.65,557.43" fill="none" stroke-linecap="round" stroke-linejoin="round" stroke="#1d3557" stroke-width="6.48"/><polyline points="405.80,500.00 433.39,566.61" fill="none" stroke-linecap="butt" stroke-linejoin="round" stroke="#f5eedb" stroke-width="11.34"/><polyline points="405.80,500.00 433.39,566.61" fill="none" stroke-linecap="round" stroke-linejoin="round" stroke="#1d3557" stroke-width="6.48"/><polyline points="442.57,361.35 361.35,442.57" fill="none" stroke-linecap="butt" stroke-linejoin="round" stroke="#f5eedb" stroke-width="11.34"/><polyline points="442.57,361.35 361.35,442.57" fill="none" stroke-linecap="round" stroke-linejoin="round" stroke="#1d3557" stroke-width="6.48"/><polyline points="500.00,862.32 756.20,756.20" fill="none" stroke-linecap="butt" stroke-linejoin="round" stroke="#f5eedb" stroke-width="11.34"/><polyline points="500.00,862.32 756.20,756.20" fill="none" stroke-linecap="round" stroke-linejoin="round" stroke="#1d3557" stroke-width="6.48"/><polyline points="638.65,165.26 361.35,165.26" fill="none" stroke-linecap="butt" stroke-linejoin="round" stroke="#f5eedb" stroke-width="11.34"/><polyline points="638.65,165.26 361.35,165.26" fill="none" stroke-linecap="round" stroke-linejoin="round" stroke="#1d3557" stroke-width="6.48"/><polyline points="638.65,834.74 834.74,638.65" fill="none" stroke-linecap="butt" stroke-linejoin="round" stroke="#f5eedb" stroke-width="11.34"/><polyline points="638.65,834.74 834.74,638.65" fill="none" stroke-linecap="round" stroke-linejoin="round" stroke="#1d3557" stroke-width="6.48"/><polyline points="295.04,704.96 500.00,789.86" fill="none" stroke-linecap="butt" stroke-linejoin="round" stroke="#f5eedb" stroke-width="11.34"/><polyline points="295.04,704.96 500.00,789.86" fill="none" stroke-linecap="round" stroke-linejoin="round" stroke="#1d3557" stroke-width="6.48"/><polyline points="862.32,500.00 756.20,243.80" fill="none" stroke-linecap="butt" stroke-linejoin="round" stroke="#f5eedb" stroke-width="11.34"/><polyline points="862.32,500.00 756.20,243.80" fill="none" stroke-linecap="round" stroke-linejoin="round" stroke="#1d3557" stroke-width="6.48"/><polyline points="767.79,389.08 767.79,610.92" fill="none" stroke-linecap="butt" stroke-linejoin="round" stroke="#f5eedb" stroke-width="11.34"/><polyline points="767.79,389.08 767.79,610.92" fill="none" stroke-linecap="round" stroke-linejoin="round" stroke="#1d3557" stroke-width="6.48"/><polyline points="606.12,393.88 500.00,349.92" fill="none" stroke-linecap="butt" stroke-linejoin="round" stroke="#f5eedb" stroke-width="11.34"/><polyline points="606.12,393.88 500.00,349.92" fill="none" stroke-linecap="round" stroke-linejoin="round" stroke="#1d3557" stroke-width="6.48"/><polyline points="767.79,389.08 610.92,232.21" fill="none" stroke-linecap="butt" stroke-linejoin="round" stroke="#f5eedb" stroke-width="11.34"/><polyline points="767.79,389.08 610.92,232.21" fill="none" stroke-linecap="round" stroke-linejoin="round" stroke="#1d3557" stroke-width="6.48"/><polyline points="433.39,433.39 405.80,500.00" fill="none" stroke-linecap="butt" stroke-linejoin="round" stroke="#f5eedb" stroke-width="11.34"/><polyline points="433.39,433.39 405.80,500.00" fill="none" stroke-linecap="round" stroke-linejoin="round" stroke="#1d3557" stroke-width="6.48"/><polyline points="361.35,834.74 638.65,834.74" fill="none" stroke-linecap="butt" stroke-linejoin="round" stroke="#f5eedb" stroke-width="11.34"/><polyline points="361.35,834.74 638.65,834.74" fill="none" stroke-linecap="round" stroke-linejoin="round" stroke="#1d3557" stroke-width="6.48"/><polyline points="210.14,500.00 295.04,704.96" fill="none" stroke-linecap="butt" stroke-linejoin="round" stroke="#f5eedb" stroke-width="11.34"/><polyline points="210.14,500.00 295.04,704.96" fill="none" stroke-linecap="round" stroke-linejoin="round" stroke="#1d3557" stroke-width="6.48"/><polyline points="393.88,606.12 500.00,650.08" fill="none" stroke-linecap="butt" stroke-linejoin="round" stroke="#f5eedb" stroke-width="11.34"/><polyline points="393.88,606.12 500.00,650.08" fill="none" stroke-linecap="round" stroke-linejoin="round" stroke="#1d3557" stroke-width="6.48"/><polyline points="756.20,243.80 500.00,137.68" fill="none" stroke-linecap="butt" stroke-linejoin="round" stroke="#f5eedb" stroke-width="11.34"/><polyline points="756.20,243.80 500.00,137.68" fill="none" stroke-linecap="round" stroke-linejoin="round" stroke="#1d3557" stroke-width="6.48"/><polyline points="295.04,295.04 210.14,500.00" fill="none" stroke-linecap="butt" stroke-linejoin="round" stroke="#f5eedb" stroke-width="11.34"/><polyline points="295.04,295.04 210.14,500.00" fill="none" stroke-linecap="round" stroke-linejoin="round" stroke="#1d3557" stroke-width="6.48"/><polyline points="834.74,361.35 638.65,165.26" fill="none" stroke-linecap="butt" stroke-linejoin="round" stroke="#f5eedb" stroke-width="11.34"/><polyline points="834.74,361.35 638.65,165.26" fill="none" stroke-linecap="round" stroke-linejoin="round" stroke="#1d3557" stroke-width="6.48"/><polyline points="704.96,295.04 500.00,210.14" fill="none" stroke-linecap="butt" stroke-linejoin="round" stroke="#f5eedb" stroke-width="11.34"/><polyline points="704.96,295.04 500.00,210.14" fill="none" stroke-linecap="round" stroke-linejoin="round" stroke="#1d3557" stroke-width="6.48"/><polyline points="789.86,500.00 704.96,295.04" fill="none" stroke-linecap="butt" stroke-linejoin="round" stroke="#f5eedb" stroke-width="11.34"/><polyline points="789.86,500.00 704.96,295.04" fill="none" stroke-linecap="round" stroke-linejoin="round" stroke="#1d3557" stroke-width="6.48"/><polyline points="610.92,232.21 389.08,232.21" fill="none" stroke-linecap="butt" stroke-linejoin="round" stroke="#f5eedb" stroke-width="11.34"/><polyline points="610.92,232.21 389.08,232.21" fill="none" stroke-linecap="round" stroke-linejoin="round" stroke="#1d3557" stroke-width="6.48"/><polyline points="232.21,389.08 232.21,610.92" fill="none" stroke-linecap="butt" stroke-linejoin="round" stroke="#f5eedb" stroke-width="11.34"/><polyline points="232.21,389.08 232.21,610.92" fill="none" stroke-linecap="round" stroke-linejoin="round" stroke="#1d3557" stroke-width="6.48"/><polyline points="566.61,433.39 500.00,405.80" fill="none" stroke-linecap="butt" stroke-linejoin="round" stroke="#f5eedb" stroke-width="11.34"/><polyline points="566.61,433.39 500.00,405.80" fill="none" stroke-linecap="round" stroke-linejoin="round" stroke="#1d3557" stroke-width="6.48"/><polyline points="500.00,594.20 566.61,566.61" fill="none" stroke-linecap="butt" stroke-linejoin="round" stroke="#f5eedb" stroke-width="11.34"/><polyline points="500.00,594.20 566.61,566.61" fill="none" stroke-linecap="round" stroke-linejoin="round" stroke="#1d3557" stroke-width="6.48"/><polyline points="165.26,361.35 165.26,638.65" fill="none" stroke-linecap="butt" stroke-linejoin="round" stroke="#f5eedb" stroke-width="11.34"/><polyline points="165.26,361.35 165.26,638.65" fill="none" stroke-linecap="round" stroke-linejoin="round" stroke="#1d3557" stroke-width="6.48"/><polyline points="361.35,557.43 442.57,638.65" fill="none" stroke-linecap="butt" stroke-linejoin="round" stroke="#f5eedb" stroke-width="11.34"/><polyline points="361.35,557.43 442.57,638.65" fill="none" stroke-linecap="round" stroke-linejoin="round" stroke="#1d3557" stroke-width="6.48"/><polyline points="389.08,767.79 610.92,767.79" fill="none" stroke-linecap="butt" stroke-linejoin="round" stroke="#f5eedb" stroke-width="11.34"/><polyline points="389.08,767.79 610.92,767.79" fill="none" stroke-linecap="round" stroke-linejoin="round" stroke="#1d3557" stroke-width="6.48"/><polyline points="500.00,789.86 704.96,704.96" fill="none" stroke-linecap="butt" stroke-linejoin="round" stroke="#f5eedb" stroke-width="11.34"/><polyline points="500.00,789.86 704.96,704.96" fill="none" stroke-linecap="round" stroke-linejoin="round" stroke="#1d3557" stroke-width="6.48"/><polyline points="638.65,442.57 638.65,557.43" fill="none" stroke-linecap="butt" stroke-linejoin="round" stroke="#f5eedb" stroke-width="11.34"/><polyline points="638.65,442.57 638.65,557.43" fill="none" stroke-linecap="round" stroke-linejoin="round" stroke="#1d3557" stroke-width="6.48"/><polyline points="165.26,638.65 361.35,834.74" fill="none" stroke-linecap="butt" stroke-linejoin="round" stroke="#f5eedb" stroke-width="11.34"/><polyline points="165.26,638.65 361.35,834.74" fill="none" stroke-linecap="round" stroke-linejoin="round" stroke="#1d3557" stroke-width="6.48"/><polyline points="557.43,361.35 442.57,361.35" fill="none" stroke-linecap="butt" stroke-linejoin="round" stroke="#f5eedb" stroke-width="11.34"/><polyline points="557.43,361.35 442.57,361.35" fill="none" stroke-linecap="round" stroke-linejoin="round" stroke="#1d3557" stroke-width="6.48"/><polyline points="243.80,243.80 137.68,500.00" fill="none" stroke-linecap="butt" stroke-linejoin="round" stroke="#f5eedb" stroke-width="11.34"/><polyline points="243.80,243.80 137.68,500.00" fill="none" stroke-linecap="round" stroke-linejoin="round" stroke="#1d3557" stroke-width="6.48"/><polyline points="349.92,500.00 393.88,606.12" fill="none" stroke-linecap="butt" stroke-linejoin="round" stroke="#f5eedb" stroke-width="11.34"/><polyline points="349.92,500.00 393.88,606.12" fill="none" stroke-linecap="round" stroke-linejoin="round" stroke="#1d3557" stroke-width="6.48"/><polyline points="243.80,756.20 500.00,862.32" fill="none" stroke-linecap="butt" stroke-linejoin="round" stroke="#f5eedb" stroke-width="11.34"/><polyline points="243.80,756.20 500.00,862.32" fill="none" stroke-linecap="round" stroke-linejoin="round" stroke="#1d3557" stroke-width="6.48"/><polyline points="361.35,442.57 361.35,557.43" fill="none" stroke-linecap="butt" stroke-linejoin="round" stroke="#f5eedb" stroke-width="11.34"/><polyline points="361.35,442.57 361.35,557.43" fill="none" stroke-linecap="round" stroke-linejoin="round" stroke="#1d3557" stroke-width="6.48"/><polyline points="789.86,500.00 704.96,704.96" fill="none" stroke-linecap="butt" stroke-linejoin="round" stroke="#f5eedb" stroke-width="11.34"/><polyline points="789.86,500.00 704.96,704.96" fill="none" stroke-linecap="round" stroke-linejoin="round" stroke="#1d3557" stroke-width="6.48"/><polyline points="610.92,767.79 767.79,610.92" fill="none" stroke-linecap="butt" stroke-linejoin="round" stroke="#f5eedb" stroke-width="11.34"/><polyline points="610.92,767.79 767.79,610.92" fill="none" stroke-linecap="round" stroke-linejoin="round" stroke="#1d3557" stroke-width="6.48"/><polyline points="361.35,165.26 165.26,361.35" fill="none" stroke-linecap="butt" stroke-linejoin="round" stroke="#f5eedb" stroke-width="11.34"/><polyline points="361.35,165.26 165.26,361.35" fill="none" stroke-linecap="round" stroke-linejoin="round" stroke="#1d3557" stroke-width="6.48"/><polyline points="594.20,500.00 566.61,433.39" fill="none" stroke-linecap="butt" stroke-linejoin="round" stroke="#f5eedb" stroke-width="11.34"/><polyline points="594.20,500.00 566.61,433.39" fill="none" stroke-linecap="round" stroke-linejoin="round" stroke="#1d3557" stroke-width="6.48"/><polyline points="834.74,361.35 834.74,638.65" fill="none" stroke-linecap="butt" stroke-linejoin="round" stroke="#f5eedb" stroke-width="11.34"/><polyline points="834.74,361.35 834.74,638.65" fill="none" stroke-linecap="round" stroke-linejoin="round" stroke="#1d3557" stroke-width="6.48"/><polyline points="393.88,393.88 349.92,500.00" fill="none" stroke-linecap="butt" stroke-linejoin="round" stroke="#f5eedb" stroke-width="11.34"/><polyline points="393.88,393.88 349.92,500.00" fill="none" stroke-linecap="round" stroke-linejoin="round" stroke="#1d3557" stroke-width="6.48"/><polyline points="594.20,500.00 566.61,566.61" fill="none" stroke-linecap="butt" stroke-linejoin="round" stroke="#f5eedb" stroke-width="11.34"/><polyline points="594.20,500.00 566.61,566.61" fill="none" stroke-linecap="round" stroke-linejoin="round" stroke="#1d3557" stroke-width="6.48"/><polyline points="389.08,232.21 232.21,389.08" fill="none" stroke-linecap="butt" stroke-linejoin="round" stroke="#f5eedb" stroke-width="11.34"/><polyline points="389.08,232.21 232.21,389.08" fill="none" stroke-linecap="round" stroke-linejoin="round" stroke="#1d3557" stroke-width="6.48"/><polyline points="500.00,405.80 433.39,433.39" fill="none" stroke-linecap="butt" stroke-linejoin="round" stroke="#f5eedb" stroke-width="11.34"/><polyline points="500.00,405.80 433.39,433.39" fill="none" stroke-linecap="round" stroke-linejoin="round" stroke="#1d3557" stroke-width="6.48"/><polyline points="232.21,610.92 389.08,767.79" fill="none" stroke-linecap="butt" stroke-linejoin="round" stroke="#f5eedb" stroke-width="11.34"/><polyline points="232.21,610.92 389.08,767.79" fill="none" stroke-linecap="round" stroke-linejoin="round" stroke="#1d3557" stroke-width="6.48"/><polyline points="137.68,500.00 243.80,756.20" fill="none" stroke-linecap="butt" stroke-linejoin="round" stroke="#f5eedb" stroke-width="11.34"/><polyline points="137.68,500.00 243.80,756.20" fill="none" stroke-linecap="round" stroke-linejoin="round" stroke="#1d3557" stroke-width="6.48"/><polyline points="433.39,566.61 500.00,594.20" fill="none" stroke-linecap="butt" stroke-linejoin="round" stroke="#f5eedb" stroke-width="11.34"/><polyline points="433.39,566.61 500.00,594.20" fill="none" stroke-linecap="round" stroke-linejoin="round" stroke="#1d3557" stroke-width="6.48"/><polyline points="500.00,650.08 606.12,606.12" fill="none" stroke-linecap="butt" stroke-linejoin="round" stroke="#f5eedb" stroke-width="11.34"/><polyline points="500.00,650.08 606.12,606.12" fill="none" stroke-linecap="round" stroke-linejoin="round" stroke="#1d3557" stroke-width="6.48"/><polyline points="650.08,500.00 606.12,606.12" fill="none" stroke-linecap="butt" stroke-linejoin="round" stroke="#f5eedb" stroke-width="11.34"/><polyline points="650.08,500.00 606.12,606.12" fill="none" stroke-linecap="round" stroke-linejoin="round" stroke="#1d3557" stroke-width="6.48"/><polyline points="862.32,500.00 756.20,756.20" fill="none" stroke-linecap="butt" stroke-linejoin="round" stroke="#f5eedb" stroke-width="11.34"/><polyline points="862.32,500.00 756.20,756.20" fill="none" stroke-linecap="round" stroke-linejoin="round" stroke="#1d3557" stroke-width="6.48"/><polyline points="500.00,210.14 295.04,295.04" fill="none" stroke-linecap="butt" stroke-linejoin="round" stroke="#f5eedb" stroke-width="11.34"/><polyline points="500.00,210.14 295.04,295.04" fill="none" stroke-linecap="round" stroke-linejoin="round" stroke="#1d3557" stroke-width="6.48"/><polyline points="442.57,638.65 557.43,638.65" fill="none" stroke-linecap="butt" stroke-linejoin="round" stroke="#f5eedb" stroke-width="11.34"/><polyline points="442.57,638.65 557.43,638.65" fill="none" stroke-linecap="round" stroke-linejoin="round" stroke="#1d3557" stroke-width="6.48"/><polyline points="638.65,442.57 557.43,361.35" fill="none" stroke-linecap="butt" stroke-linejoin="round" stroke="#f5eedb" stroke-width="11.34"/><polyline points="638.65,442.57 557.43,361.35" fill="none" stroke-linecap="round" stroke-linejoin="round" stroke="#1d3557" stroke-width="6.48"/><polyline points="500.00,137.68 243.80,243.80" fill="none" stroke-linecap="butt" stroke-linejoin="round" stroke="#f5eedb" stroke-width="11.34"/><polyline points="500.00,137.68 243.80,243.80" fill="none" stroke-linecap="round" stroke-linejoin="round" stroke="#1d3557" stroke-width="6.48"/><polyline points="862.32,500.00 810.56,551.76 758.80,603.52 707.04,655.28 655.28,707.04 603.52,758.80 551.76,810.56 500.00,862.32" fill="none" stroke-linecap="butt" stroke-linejoin="round" stroke="#f5eedb" stroke-width="11.97"/><polyline points="862.32,500.00 810.56,551.76 758.80,603.52 707.04,655.28 655.28,707.04 603.52,758.80 551.76,810.56 500.00,862.32" fill="none" stroke-linecap="round" stroke-linejoin="round" stroke="#9a7426" stroke-width="6.84"/><polyline points="789.86,500.00 748.44,458.59 707.04,417.19 665.63,375.78 624.22,334.37 582.81,292.96 541.41,251.56 500.00,210.14" fill="none" stroke-linecap="butt" stroke-linejoin="round" stroke="#f5eedb" stroke-width="11.97"/><polyline points="789.86,500.00 748.44,458.59 707.04,417.19 665.63,375.78 624.22,334.37 582.81,292.96 541.41,251.56 500.00,210.14" fill="none" stroke-linecap="round" stroke-linejoin="round" stroke="#9a7426" stroke-width="6.84"/><polyline points="500.00,349.92 484.84,386.52 469.68,423.12 454.52,459.72 439.36,496.32 424.20,532.92 409.04,569.52 393.88,606.12" fill="none" stroke-linecap="butt" stroke-linejoin="round" stroke="#f5eedb" stroke-width="11.97"/><polyline points="500.00,349.92 484.84,386.52 469.68,423.12 454.52,459.72 439.36,496.32 424.20,532.92 409.04,569.52 393.88,606.12" fill="none" stroke-linecap="round" stroke-linejoin="round" stroke="#9a7426" stroke-width="6.84"/><polyline points="789.86,500.00 748.45,541.41 707.04,582.82 665.64,624.23 624.23,665.64 582.82,707.04 541.41,748.45 500.00,789.86" fill="none" stroke-linecap="butt" stroke-linejoin="round" stroke="#f5eedb" stroke-width="11.97"/><polyline points="789.86,500.00 748.45,541.41 707.04,582.82 665.64,624.23 624.23,665.64 582.82,707.04 541.41,748.45 500.00,789.86" fill="none" stroke-linecap="round" stroke-linejoin="round" stroke="#9a7426" stroke-width="6.84"/><polyline points="789.86,500.00 719.17,529.28 648.48,558.57 577.80,587.85 507.11,617.13 436.42,646.41 365.73,675.68 295.04,704.96" fill="none" stroke-linecap="butt" stroke-linejoin="round" stroke="#f5eedb" stroke-width="11.97"/><polyline points="789.86,500.00 719.17,529.28 648.48,558.57 577.80,587.85 507.11,617.13 436.42,646.41 365.73,675.68 295.04,704.96" fill="none" stroke-linecap="round" stroke-linejoin="round" stroke="#9a7426" stroke-width="6.84"/><polyline points="862.32,500.00 810.56,448.24 758.80,396.48 707.03,344.73 655.27,292.97 603.52,241.20 551.76,189.44 500.00,137.68" fill="none" stroke-linecap="butt" stroke-linejoin="round" stroke="#f5eedb" stroke-width="11.97"/><polyline points="862.32,500.00 810.56,448.24 758.80,396.48 707.03,344.73 655.27,292.97 603.52,241.20 551.76,189.44 500.00,137.68" fill="none" stroke-linecap="round" stroke-linejoin="round" stroke="#9a7426" stroke-width="6.84"/><polyline points="393.88,393.88 393.88,424.20 393.88,454.52 393.88,484.84 393.88,515.16 393.88,545.48 393.88,575.80 393.88,606.12" fill="none" stroke-linecap="butt" stroke-linejoin="round" stroke="#f5eedb" stroke-width="11.97"/><polyline points="393.88,393.88 393.88,424.20 393.88,454.52 393.88,484.84 393.88,515.16 393.88,545.48 393.88,575.80 393.88,606.12" fill="none" stroke-linecap="round" stroke-linejoin="round" stroke="#9a7426" stroke-width="6.84"/><polyline points="500.00,137.68 448.24,189.44 396.48,241.20 344.73,292.97 292.97,344.73 241.20,396.48 189.44,448.24 137.68,500.00" fill="none" stroke-linecap="butt" stroke-linejoin="round" stroke="#f5eedb" stroke-width="11.97"/><polyline points="500.00,137.68 448.24,189.44 396.48,241.20 344.73,292.97 292.97,344.73 241.20,396.48 189.44,448.24 137.68,500.00" fill="none" stroke-linecap="round" stroke-linejoin="round" stroke="#9a7426" stroke-width="6.84"/><polyline points="756.20,243.80 756.20,317.00 756.20,390.20 756.20,463.40 756.20,536.60 756.20,609.80 756.20,683.00 756.20,756.20" fill="none" stroke-linecap="butt" stroke-linejoin="round" stroke="#f5eedb" stroke-width="11.97"/><polyline points="756.20,243.80 756.20,317.00 756.20,390.20 756.20,463.40 756.20,536.60 756.20,609.80 756.20,683.00 756.20,756.20" fill="none" stroke-linecap="round" stroke-linejoin="round" stroke="#9a7426" stroke-width="6.84"/><polyline points="704.96,295.04 704.96,353.60 704.96,412.16 704.97,470.72 704.97,529.28 704.96,587.84 704.96,646.40 704.96,704.96" fill="none" stroke-linecap="butt" stroke-linejoin="round" stroke="#f5eedb" stroke-width="11.97"/><polyline points="704.96,295.04 704.96,353.60 704.96,412.16 704.97,470.72 704.97,529.28 704.96,587.84 704.96,646.40 704.96,704.96" fill="none" stroke-linecap="round" stroke-linejoin="round" stroke="#9a7426" stroke-width="6.84"/><polyline points="393.88,606.12 424.20,606.12 454.52,606.12 484.84,606.12 515.16,606.12 545.48,606.12 575.80,606.12 606.12,606.12" fill="none" stroke-linecap="butt" stroke-linejoin="round" stroke="#f5eedb" stroke-width="11.97"/><polyline points="393.88,606.12 424.20,606.12 454.52,606.12 484.84,606.12 515.16,606.12 545.48,606.12 575.80,606.12 606.12,606.12" fill="none" stroke-linecap="round" stroke-linejoin="round" stroke="#9a7426" stroke-width="6.84"/><polyline points="650.08,500.00 613.48,484.84 576.88,469.68 540.28,454.52 503.68,439.36 467.08,424.20 430.48,409.04 393.88,393.88" fill="none" stroke-linecap="butt" stroke-linejoin="round" stroke="#f5eedb" stroke-width="11.97"/><polyline points="650.08,500.00 613.48,484.84 576.88,469.68 540.28,454.52 503.68,439.36 467.08,424.20 430.48,409.04 393.88,393.88" fill="none" stroke-linecap="round" stroke-linejoin="round" stroke="#9a7426" stroke-width="6.84"/><polyline points="756.20,243.80 667.84,280.41 579.48,317.01 491.12,353.61 402.76,390.21 314.40,426.81 226.04,463.40 137.68,500.00" fill="none" stroke-linecap="butt" stroke-linejoin="round" stroke="#f5eedb" stroke-width="11.97"/><polyline points="756.20,243.80 667.84,280.41 579.48,317.01 491.12,353.61 402.76,390.21 314.40,426.81 226.04,463.40 137.68,500.00" fill="none" stroke-linecap="round" stroke-linejoin="round" stroke="#9a7426" stroke-width="6.84"/><polyline points="650.08,500.00 628.64,478.56 607.20,457.12 585.76,435.68 564.32,414.24 542.88,392.80 521.44,371.36 500.00,349.92" fill="none" stroke-linecap="butt" stroke-linejoin="round" stroke="#f5eedb" stroke-width="11.97"/><polyline points="650.08,500.00 628.64,478.56 607.20,457.12 585.76,435.68 564.32,414.24 542.88,392.80 521.44,371.36 500.00,349.92" fill="none" stroke-linecap="round" stroke-linejoin="round" stroke="#9a7426" stroke-width="6.84"/><polyline points="295.04,704.96 353.60,704.96 412.16,704.95 470.72,704.95 529.28,704.95 587.84,704.95 646.40,704.96 704.96,704.96" fill="none" stroke-linecap="butt" stroke-linejoin="round" stroke="#f5eedb" stroke-width="11.97"/><polyline points="295.04,704.96 353.60,704.96 412.16,704.95 470.72,704.95 529.28,704.95 587.84,704.95 646.40,704.96 704.96,704.96" fill="none" stroke-linecap="round" stroke-linejoin="round" stroke="#9a7426" stroke-width="6.84"/><polyline points="295.04,295.04 324.33,365.73 353.61,436.41 382.89,507.10 412.17,577.79 441.45,648.48 470.72,719.17 500.00,789.86" fill="none" stroke-linecap="butt" stroke-linejoin="round" stroke="#f5eedb" stroke-width="11.97"/><polyline points="295.04,295.04 324.33,365.73 353.61,436.41 382.89,507.10 412.17,577.79 441.45,648.48 470.72,719.17 500.00,789.86" fill="none" stroke-linecap="round" stroke-linejoin="round" stroke="#9a7426" stroke-width="6.84"/><polyline points="606.12,393.88 575.80,393.88 545.48,393.88 515.16,393.88 484.84,393.88 454.52,393.88 424.20,393.88 393.88,393.88" fill="none" stroke-linecap="butt" stroke-linejoin="round" stroke="#f5eedb" stroke-width="11.97"/><polyline points="606.12,393.88 575.80,393.88 545.48,393.88 515.16,393.88 484.84,393.88 454.52,393.88 424.20,393.88 393.88,393.88" fill="none" stroke-linecap="round" stroke-linejoin="round" stroke="#9a7426" stroke-width="6.84"/><polyline points="704.96,295.04 634.27,324.33 563.59,353.61 492.90,382.89 422.21,412.17 351.52,441.45 280.83,470.72 210.14,500.00" fill="none" stroke-linecap="butt" stroke-linejoin="round" stroke="#f5eedb" stroke-width="11.97"/><polyline points="704.96,295.04 634.27,324.33 563.59,353.61 492.90,382.89 422.21,412.17 351.52,441.45 280.83,470.72 210.14,500.00" fill="none" stroke-linecap="round" stroke-linejoin="round" stroke="#9a7426" stroke-width="6.84"/><polyline points="789.86,500.00 719.17,470.72 648.48,441.45 577.79,412.17 507.10,382.89 436.41,353.61 365.73,324.33 295.04,295.04" fill="none" stroke-linecap="butt" stroke-linejoin="round" stroke="#f5eedb" stroke-width="11.97"/><polyline points="789.86,500.00 719.17,470.72 648.48,441.45 577.79,412.17 507.10,382.89 436.41,353.61 365.73,324.33 295.04,295.04" fill="none" stroke-linecap="round" stroke-linejoin="round" stroke="#9a7426" stroke-width="6.84"/><polyline points="137.68,500.00 226.04,536.60 314.40,573.19 402.76,609.79 491.12,646.39 579.48,682.99 667.84,719.59 756.20,756.20" fill="none" stroke-linecap="butt" stroke-linejoin="round" stroke="#f5eedb" stroke-width="11.97"/><polyline points="137.68,500.00 226.04,536.60 314.40,573.19 402.76,609.79 491.12,646.39 579.48,682.99 667.84,719.59 756.20,756.20" fill="none" stroke-linecap="round" stroke-linejoin="round" stroke="#9a7426" stroke-width="6.84"/><polyline points="243.80,243.80 280.41,332.16 317.01,420.52 353.61,508.88 390.21,597.24 426.81,685.60 463.40,773.96 500.00,862.32" fill="none" stroke-linecap="butt" stroke-linejoin="round" stroke="#f5eedb" stroke-width="11.97"/><polyline points="243.80,243.80 280.41,332.16 317.01,420.52 353.61,508.88 390.21,597.24 426.81,685.60 463.40,773.96 500.00,862.32" fill="none" stroke-linecap="round" stroke-linejoin="round" stroke="#9a7426" stroke-width="6.84"/><polyline points="137.68,500.00 189.44,551.76 241.20,603.52 292.97,655.27 344.73,707.03 396.48,758.80 448.24,810.56 500.00,862.32" fill="none" stroke-linecap="butt" stroke-linejoin="round" stroke="#f5eedb" stroke-width="11.97"/><polyline points="137.68,500.00 189.44,551.76 241.20,603.52 292.97,655.27 344.73,707.03 396.48,758.80 448.24,810.56 500.00,862.32" fill="none" stroke-linecap="round" stroke-linejoin="round" stroke="#9a7426" stroke-width="6.84"/><polyline points="500.00,210.14 458.59,251.56 417.19,292.96 375.78,334.37 334.37,375.78 292.96,417.19 251.56,458.59 210.14,500.00" fill="none" stroke-linecap="butt" stroke-linejoin="round" stroke="#f5eedb" stroke-width="11.97"/><polyline points="500.00,210.14 458.59,251.56 417.19,292.96 375.78,334.37 334.37,375.78 292.96,417.19 251.56,458.59 210.14,500.00" fill="none" stroke-linecap="round" stroke-linejoin="round" stroke="#9a7426" stroke-width="6.84"/><polyline points="243.80,243.80 243.81,317.00 243.81,390.20 243.81,463.40 243.81,536.60 243.81,609.80 243.81,683.00 243.80,756.20" fill="none" stroke-linecap="butt" stroke-linejoin="round" stroke="#f5eedb" stroke-width="11.97"/><polyline points="243.80,243.80 243.81,317.00 243.81,390.20 243.81,463.40 243.81,536.60 243.81,609.80 243.81,683.00 243.80,756.20" fill="none" stroke-linecap="round" stroke-linejoin="round" stroke="#9a7426" stroke-width="6.84"/><polyline points="500.00,349.92 478.56,371.36 457.12,392.80 435.68,414.24 414.24,435.68 392.80,457.12 371.36,478.56 349.92,500.00" fill="none" stroke-linecap="butt" stroke-linejoin="round" stroke="#f5eedb" stroke-width="11.97"/><polyline points="500.00,349.92 478.56,371.36 457.12,392.80 435.68,414.24 414.24,435.68 392.80,457.12 371.36,478.56 349.92,500.00" fill="none" stroke-linecap="round" stroke-linejoin="round" stroke="#9a7426" stroke-width="6.84"/><polyline points="862.32,500.00 773.96,536.60 685.60,573.21 597.24,609.81 508.88,646.41 420.52,683.01 332.16,719.60 243.80,756.20" fill="none" stroke-linecap="butt" stroke-linejoin="round" stroke="#f5eedb" stroke-width="11.97"/><polyline points="862.32,500.00 773.96,536.60 685.60,573.21 597.24,609.81 508.88,646.41 420.52,683.01 332.16,719.60 243.80,756.20" fill="none" stroke-linecap="round" stroke-linejoin="round" stroke="#9a7426" stroke-width="6.84"/><polyline points="210.14,500.00 251.56,541.41 292.96,582.81 334.37,624.22 375.78,665.63 417.19,707.04 458.59,748.44 500.00,789.86" fill="none" stroke-linecap="butt" stroke-linejoin="round" stroke="#f5eedb" stroke-width="11.97"/><polyline points="210.14,500.00 251.56,541.41 292.96,582.81 334.37,624.22 375.78,665.63 417.19,707.04 458.59,748.44 500.00,789.86" fill="none" stroke-linecap="round" stroke-linejoin="round" stroke="#9a7426" stroke-width="6.84"/><polyline points="500.00,210.14 470.72,280.83 441.45,351.52 412.17,422.21 382.89,492.90 353.61,563.59 324.33,634.27 295.04,704.96" fill="none" stroke-linecap="butt" stroke-linejoin="round" stroke="#f5eedb" stroke-width="11.97"/><polyline points="500.00,210.14 470.72,280.83 441.45,351.52 412.17,422.21 382.89,492.90 353.61,563.59 324.33,634.27 295.04,704.96" fill="none" stroke-linecap="round" stroke-linejoin="round" stroke="#9a7426" stroke-width="6.84"/><polyline points="500.00,137.68 463.40,226.04 426.81,314.40 390.21,402.76 353.61,491.12 317.01,579.48 280.41,667.84 243.80,756.20" fill="none" stroke-linecap="butt" stroke-linejoin="round" stroke="#f5eedb" stroke-width="11.97"/><polyline points="500.00,137.68 463.40,226.04 426.81,314.40 390.21,402.76 353.61,491.12 317.01,579.48 280.41,667.84 243.80,756.20" fill="none" stroke-linecap="round" stroke-linejoin="round" stroke="#9a7426" stroke-width="6.84"/><polyline points="704.96,295.04 646.40,295.04 587.84,295.05 529.28,295.05 470.72,295.05 412.16,295.05 353.60,295.04 295.04,295.04" fill="none" stroke-linecap="butt" stroke-linejoin="round" stroke="#f5eedb" stroke-width="11.97"/><polyline points="704.96,295.04 646.40,295.04 587.84,295.05 529.28,295.05 470.72,295.05 412.16,295.05 353.60,295.04 295.04,295.04" fill="none" stroke-linecap="round" stroke-linejoin="round" stroke="#9a7426" stroke-width="6.84"/><polyline points="500.00,137.68 536.60,226.04 573.21,314.40 609.81,402.76 646.41,491.12 683.01,579.48 719.60,667.84 756.20,756.20" fill="none" stroke-linecap="butt" stroke-linejoin="round" stroke="#f5eedb" stroke-width="11.97"/><polyline points="500.00,137.68 536.60,226.04 573.21,314.40 609.81,402.76 646.41,491.12 683.01,579.48 719.60,667.84 756.20,756.20" fill="none" stroke-linecap="round" stroke-linejoin="round" stroke="#9a7426" stroke-width="6.84"/><polyline points="295.04,295.04 295.04,353.60 295.05,412.16 295.05,470.72 295.05,529.28 295.05,587.84 295.04,646.40 295.04,704.96" fill="none" stroke-linecap="butt" stroke-linejoin="round" stroke="#f5eedb" stroke-width="11.97"/><polyline points="295.04,295.04 295.04,353.60 295.05,412.16 295.05,470.72 295.05,529.28 295.05,587.84 295.04,646.40 295.04,704.96" fill="none" stroke-linecap="round" stroke-linejoin="round" stroke="#9a7426" stroke-width="6.84"/><polyline points="349.92,500.00 386.52,515.16 423.12,530.32 459.72,545.48 496.32,560.64 532.92,575.80 569.52,590.96 606.12,606.12" fill="none" stroke-linecap="butt" stroke-linejoin="round" stroke="#f5eedb" stroke-width="11.97"/><polyline points="349.92,500.00 386.52,515.16 423.12,530.32 459.72,545.48 496.32,560.64 532.92,575.80 569.52,590.96 606.12,606.12" fill="none" stroke-linecap="round" stroke-linejoin="round" stroke="#9a7426" stroke-width="6.84"/><polyline points="606.12,393.88 606.12,424.20 606.12,454.52 606.12,484.84 606.12,515.16 606.12,545.48 606.12,575.80 606.12,606.12" fill="none" stroke-linecap="butt" stroke-linejoin="round" stroke="#f5eedb" stroke-width="11.97"/><polyline points="606.12,393.88 606.12,424.20 606.12,454.52 606.12,484.84 606.12,515.16 606.12,545.48 606.12,575.80 606.12,606.12" fill="none" stroke-linecap="round" stroke-linejoin="round" stroke="#9a7426" stroke-width="6.84"/><polyline points="862.32,500.00 773.96,463.40 685.60,426.81 597.24,390.21 508.88,353.61 420.52,317.01 332.16,280.41 243.80,243.80" fill="none" stroke-linecap="butt" stroke-linejoin="round" stroke="#f5eedb" stroke-width="11.97"/><polyline points="862.32,500.00 773.96,463.40 685.60,426.81 597.24,390.21 508.88,353.61 420.52,317.01 332.16,280.41 243.80,243.80" fill="none" stroke-linecap="round" stroke-linejoin="round" stroke="#9a7426" stroke-width="6.84"/><polyline points="210.14,500.00 280.83,529.28 351.52,558.55 422.21,587.83 492.90,617.11 563.59,646.39 634.27,675.67 704.96,704.96" fill="none" stroke-linecap="butt" stroke-linejoin="round" stroke="#f5eedb" stroke-width="11.97"/><polyline points="210.14,500.00 280.83,529.28 351.52,558.55 422.21,587.83 492.90,617.11 563.59,646.39 634.27,675.67 704.96,704.96" fill="none" stroke-linecap="round" stroke-linejoin="round" stroke="#9a7426" stroke-width="6.84"/><polyline points="650.08,500.00 628.64,521.44 607.20,542.88 585.76,564.32 564.32,585.76 542.88,607.20 521.44,628.64 500.00,650.08" fill="none" stroke-linecap="butt" stroke-linejoin="round" stroke="#f5eedb" stroke-width="11.97"/><polyline points="650.08,500.00 628.64,521.44 607.20,542.88 585.76,564.32 564.32,585.76 542.88,607.20 521.44,628.64 500.00,650.08" fill="none" stroke-linecap="round" stroke-linejoin="round" stroke="#9a7426" stroke-width="6.84"/><polyline points="500.00,210.14 529.28,280.83 558.57,351.52 587.85,422.20 617.13,492.89 646.41,563.58 675.68,634.27 704.96,704.96" fill="none" stroke-linecap="butt" stroke-linejoin="round" stroke="#f5eedb" stroke-width="11.97"/><polyline points="500.00,210.14 529.28,280.83 558.57,351.52 587.85,422.20 617.13,492.89 646.41,563.58 675.68,634.27 704.96,704.96" fill="none" stroke-linecap="round" stroke-linejoin="round" stroke="#9a7426" stroke-width="6.84"/><polyline points="650.08,500.00 613.48,515.16 576.88,530.32 540.28,545.48 503.68,560.64 467.08,575.80 430.48,590.96 393.88,606.12" fill="none" stroke-linecap="butt" stroke-linejoin="round" stroke="#f5eedb" stroke-width="11.97"/><polyline points="650.08,500.00 613.48,515.16 576.88,530.32 540.28,545.48 503.68,560.64 467.08,575.80 430.48,590.96 393.88,606.12" fill="none" stroke-linecap="round" stroke-linejoin="round" stroke="#9a7426" stroke-width="6.84"/><polyline points="243.80,756.20 317.00,756.19 390.20,756.19 463.40,756.19 536.60,756.19 609.80,756.19 683.00,756.19 756.20,756.20" fill="none" stroke-linecap="butt" stroke-linejoin="round" stroke="#f5eedb" stroke-width="11.97"/><polyline points="243.80,756.20 317.00,756.19 390.20,756.19 463.40,756.19 536.60,756.19 609.80,756.19 683.00,756.19 756.20,756.20" fill="none" stroke-linecap="round" stroke-linejoin="round" stroke="#9a7426" stroke-width="6.84"/><polyline points="500.00,349.92 515.16,386.52 530.32,423.12 545.48,459.72 560.64,496.32 575.80,532.92 590.96,569.52 606.12,606.12" fill="none" stroke-linecap="butt" stroke-linejoin="round" stroke="#f5eedb" stroke-width="11.97"/><polyline points="500.00,349.92 515.16,386.52 530.32,423.12 545.48,459.72 560.64,496.32 575.80,532.92 590.96,569.52 606.12,606.12" fill="none" stroke-linecap="round" stroke-linejoin="round" stroke="#9a7426" stroke-width="6.84"/><polyline points="393.88,393.88 409.04,430.48 424.20,467.08 439.36,503.68 454.52,540.28 469.68,576.88 484.84,613.48 500.00,650.08" fill="none" stroke-linecap="butt" stroke-linejoin="round" stroke="#f5eedb" stroke-width="11.97"/><polyline points="393.88,393.88 409.04,430.48 424.20,467.08 439.36,503.68 454.52,540.28 469.68,576.88 484.84,613.48 500.00,650.08" fill="none" stroke-linecap="round" stroke-linejoin="round" stroke="#9a7426" stroke-width="6.84"/><polyline points="756.20,243.80 719.60,332.16 683.01,420.52 646.41,508.88 609.81,597.24 573.21,685.60 536.60,773.96 500.00,862.32" fill="none" stroke-linecap="butt" stroke-linejoin="round" stroke="#f5eedb" stroke-width="11.97"/><polyline points="756.20,243.80 719.60,332.16 683.01,420.52 646.41,508.88 609.81,597.24 573.21,685.60 536.60,773.96 500.00,862.32" fill="none" stroke-linecap="round" stroke-linejoin="round" stroke="#9a7426" stroke-width="6.84"/><polyline points="606.12,393.88 590.96,430.48 575.80,467.08 560.64,503.68 545.48,540.28 530.32,576.88 515.16,613.48 500.00,650.08" fill="none" stroke-linecap="butt" stroke-linejoin="round" stroke="#f5eedb" stroke-width="11.97"/><polyline points="606.12,393.88 590.96,430.48 575.80,467.08 560.64,503.68 545.48,540.28 530.32,576.88 515.16,613.48 500.00,650.08" fill="none" stroke-linecap="round" stroke-linejoin="round" stroke="#9a7426" stroke-width="6.84"/><polyline points="349.92,500.00 371.36,521.44 392.80,542.88 414.24,564.32 435.68,585.76 457.12,607.20 478.56,628.64 500.00,650.08" fill="none" stroke-linecap="butt" stroke-linejoin="round" stroke="#f5eedb" stroke-width="11.97"/><polyline points="349.92,500.00 371.36,521.44 392.80,542.88 414.24,564.32 435.68,585.76 457.12,607.20 478.56,628.64 500.00,650.08" fill="none" stroke-linecap="round" stroke-linejoin="round" stroke="#9a7426" stroke-width="6.84"/><polyline points="606.12,393.88 569.52,409.04 532.92,424.20 496.32,439.36 459.72,454.52 423.12,469.68 386.52,484.84 349.92,500.00" fill="none" stroke-linecap="butt" stroke-linejoin="round" stroke="#f5eedb" stroke-width="11.97"/><polyline points="606.12,393.88 569.52,409.04 532.92,424.20 496.32,439.36 459.72,454.52 423.12,469.68 386.52,484.84 349.92,500.00" fill="none" stroke-linecap="round" stroke-linejoin="round" stroke="#9a7426" stroke-width="6.84"/><polyline points="756.20,243.80 683.00,243.81 609.80,243.81 536.60,243.81 463.40,243.81 390.20,243.81 317.00,243.81 243.80,243.80" fill="none" stroke-linecap="butt" stroke-linejoin="round" stroke="#f5eedb" stroke-width="11.97"/><polyline points="756.20,243.80 683.00,243.81 609.80,243.81 536.60,243.81 463.40,243.81 390.20,243.81 317.00,243.81 243.80,243.80" fill="none" stroke-linecap="round" stroke-linejoin="round" stroke="#9a7426" stroke-width="6.84"/><polyline points="704.96,295.04 675.68,365.73 646.41,436.42 617.13,507.11 587.85,577.80 558.57,648.48 529.28,719.17 500.00,789.86" fill="none" stroke-linecap="butt" stroke-linejoin="round" stroke="#f5eedb" stroke-width="11.97"/><polyline points="704.96,295.04 675.68,365.73 646.41,436.42 617.13,507.11 587.85,577.80 558.57,648.48 529.28,719.17 500.00,789.86" fill="none" stroke-linecap="round" stroke-linejoin="round" stroke="#9a7426" stroke-width="6.84"/></svg>